<?xml version="1.0" standalone="no"?><!DOCTYPE svg PUBLIC "-//W3C//DTD SVG 1.1//EN" "http://www.w3.org/Graphics/SVG/1.1/DTD/svg11.dtd"><svg t="1705298515962" class="icon" viewBox="0 0 1024 1024" version="1.1" xmlns="http://www.w3.org/2000/svg" p-id="12257" xmlns:xlink="http://www.w3.org/1999/xlink" width="200" height="200"><path d="M487.8 998c-10.2 0-20-5.6-24.9-15.2l-373.8-729c-5-9.8-3.8-21.6 3-30.2 3.7-4.7 93.2-114.4 293.4-100.3 74.9 5.3 130.2-28.3 179-58 42.5-25.8 79.2-48.2 118.7-35.8 28.1 8.8 50.3 33.6 69.9 77.9 49.3 111.4 88.4 223.9 41.2 292.4-31.2 45.3-91.9 64-191.3 58.7-99.7-5.2-159.2 30.5-191.7 61.5-39.2 37.3-56.8 84.4-56.7 112.4 0 4.1-0.9 8.1-2.5 11.6l160.6 313.2c7.1 13.8 1.6 30.6-12.1 37.7-4.1 2.1-8.5 3.1-12.8 3.1zM148.1 246.1L312.6 567c11.5-28.6 30.6-59.5 60-87.5 40.4-38.6 113.8-83.2 233.3-76.9 75.8 4 123.7-7.6 142.2-34.5 32.2-46.7-11-158.2-46.3-237.9-15.3-34.6-27.7-44.7-35.5-47.2-15.3-4.8-43.2 12.2-72.8 30.2-50.4 30.6-119.4 72.5-212 66-131.9-9.3-206.2 42.4-233.4 66.9z" fill="#2c2c2c" p-id="12258" data-spm-anchor-id="a313x.search_index.0.i11.24243a81MzJYcE" class="selected"></path><path d="M251.8 327.1c-7.3 0-14.5-2.8-20-8.4-10.8-11-10.7-28.8 0.4-39.6 22.6-22.2 87.8-72.9 205.3-64.6 50.1 3.5 87.9-19.4 121.2-39.7 21-12.8 39.2-23.8 58.8-27.5 15.1-2.9 29.8 7.1 32.7 22.3 2.9 15.2-7.1 29.8-22.3 32.7-9.7 1.8-24.5 10.8-40.2 20.4-36.4 22.1-86.3 52.4-154.3 47.7-97.4-6.9-148.7 35.5-162.1 48.7-5.4 5.4-12.4 8-19.5 8z" fill="#2c2c2c" p-id="12259" data-spm-anchor-id="a313x.search_index.0.i10.24243a81MzJYcE" class="selected"></path></svg>